<?xml version="1.0" encoding="UTF-8" standalone="no"?>
<!-- Created with Inkscape (http://www.inkscape.org/) -->

<svg width="101.78378mm" height="85.53891mm" viewBox="0 0 101.78378 85.53891" version="1.1" id="svg5" inkscape:version="1.1.2 (0a00cf5339, 2022-02-04)" sodipodi:docname="logo.svg" xmlns:inkscape="http://www.inkscape.org/namespaces/inkscape" xmlns:sodipodi="http://sodipodi.sourceforge.net/DTD/sodipodi-0.dtd" xmlns="http://www.w3.org/2000/svg" xmlns:svg="http://www.w3.org/2000/svg">
  <sodipodi:namedview id="namedview7" pagecolor="#ffffff" bordercolor="#666666" borderopacity="1.0" inkscape:pageshadow="2" inkscape:pageopacity="0.0" inkscape:pagecheckerboard="0" inkscape:document-units="mm" showgrid="false" inkscape:zoom="0.77593294" inkscape:cx="297.70614" inkscape:cy="306.08315" inkscape:window-width="2160" inkscape:window-height="1920" inkscape:window-x="0" inkscape:window-y="0" inkscape:window-maximized="1" inkscape:current-layer="layer1" fit-margin-top="0" fit-margin-left="0" fit-margin-right="0" fit-margin-bottom="0" />
  <defs id="defs2" />
  <g inkscape:label="Layer 1" inkscape:groupmode="layer" id="layer1" transform="translate(-45.906607,-43.02921)">
    <path style="fill:#000080;stroke-width:0.264583" id="path943" d="m 46.639272,63.552062 c 1.427898,-0.571696 2.730849,-1.415754 4.122388,-2.057654 1.013928,-0.467712 2.069708,-0.84002 3.088788,-1.296397 10.266468,-4.597652 -2.993541,1.069805 8.953902,-3.966568 9.201124,-3.53669 2.843334,-1.33763 13.30688,-4.238434 2.650273,-0.734735 5.245134,-1.679617 7.927681,-2.286021 2.783454,-0.629211 5.617477,-1.017307 8.443354,-1.414732 5.992908,-0.842831 9.923615,-1.066319 15.893105,-1.53742 4.10117,0.328948 7.98005,0.31002 11.88893,1.75323 1.87702,0.69302 4.1695,1.86631 4.56136,4.125378 0.57593,3.320256 -0.88195,4.398327 -2.5609,7.197597 -1.1976,1.532996 -2.2622,3.17989 -3.5928,4.598985 -3.05823,3.261643 -7.91019,7.023743 -11.43425,9.63495 -2.26687,1.679684 -4.55559,3.333634 -6.91237,4.884657 -4.967451,3.26912 -9.586576,5.7685 -14.753216,8.69079 -2.327315,1.26471 -4.654627,2.52942 -6.981941,3.79413 -2.09872,1.0739 -4.221197,2.10259 -6.296158,3.22171 -1.729917,0.93303 -3.431283,1.91941 -5.11526,2.933 -0.413997,0.24919 -5.233726,3.219037 -6.01694,4.140397 -0.364234,0.42848 -0.3711,1.06176 -0.556649,1.59263 0.562525,0.64506 0.935929,1.52583 1.687573,1.93518 1.057495,0.57591 2.320086,0.65492 3.500961,0.89052 3.369758,0.6723 8.942872,1.35544 12.152207,1.76323 12.004005,1.52526 5.132221,0.32002 17.825257,3.12018 12.234556,1.75297 8.460586,0.96027 20.742626,3.76096 3.49325,0.79657 6.99528,1.56332 10.45693,2.48759 24.75252,6.60899 -3.63192,-0.21049 18.90959,5.05816 0.33175,0.18761 2.10059,-2.94019 1.76883,-3.1278 v 0 c -3.32909,-1.46176 -6.53966,-3.2305 -9.98727,-4.38529 -3.33529,-1.11717 -6.86991,-1.52108 -10.27529,-2.40174 -3.54801,-0.91754 -7.00301,-2.1916 -10.57939,-2.99145 -1.97012,-0.44061 -18.876214,-3.04008 -21.038106,-3.37666 -2.583458,-0.29424 -14.954271,-1.75123 -17.956789,-1.91799 -2.275231,-0.12637 -4.558162,0.0412 -6.836198,-0.0154 -1.712886,-0.0426 -3.421589,-0.18951 -5.132501,-0.28207 -1.0228,-0.0553 -2.045928,-0.21869 -3.068633,-0.16161 -0.353708,0.0197 -0.659587,0.25873 -0.98938,0.3881 1.136224,-1.21645 0.424984,-0.59405 2.95157,-1.80166 1.316445,-0.62922 2.634708,-1.25585 3.971811,-1.83988 1.815214,-0.792857 3.679995,-1.470807 5.483458,-2.290047 2.509467,-1.13995 11.467772,-5.62969 13.663869,-6.723 2.450544,-1.50375 4.90102,-3.00762 7.35163,-4.51126 2.507359,-1.53846 5.079109,-2.97656 7.522269,-4.61506 6.69131,-4.4875 13.09108,-9.698794 18.29744,-15.881691 1.36705,-1.623459 2.51701,-3.417956 3.77551,-5.126934 1.03639,-2.589184 3.08683,-6.274239 2.30153,-9.361205 -0.38992,-1.53276 -1.37532,-2.914964 -2.4849,-4.042007 -1.12488,-1.142585 -2.57756,-1.960428 -4.04979,-2.595544 -4.50907,-1.945198 -7.85877,-1.810028 -12.73665,-2.248702 -2.6663,0.04051 -5.33803,-0.05331 -7.998897,0.121534 -6.05905,0.398145 -11.218505,1.321329 -17.134771,2.674821 -2.762998,0.632105 -5.525402,1.290539 -8.229229,2.140852 -5.052073,1.588802 -8.4695,3.267588 -13.205968,5.391102 -3.883432,2.095021 -7.750299,4.176353 -11.510174,6.48665 -0.445053,0.273468 -2.599393,1.583311 -3.226411,2.075256 -0.226671,0.177845 -0.406836,0.408067 -0.610256,0.612101 -0.108241,0.07654 0.613399,1.097047 0.721638,1.020505 z" />
    <path style="fill:#000080;stroke-width:0.264583" id="path945" d="m 82.172523,57.363492 c -0.09277,0.205557 -0.168021,0.419954 -0.278304,0.616672 -0.259938,0.463653 -0.569199,0.898416 -0.830578,1.36126 -0.849413,1.504119 -2.377948,4.480568 -3.03023,5.836359 -0.743622,1.54564 -1.390616,3.13731 -2.158511,4.671033 -0.934865,1.867223 -1.965142,3.68513 -2.947715,5.527694 -2.430711,4.711308 -5.023516,9.336728 -7.48057,14.033976 -1.43946,2.751873 -2.825985,5.531125 -4.247858,8.292126 -1.516947,2.945618 -3.092358,5.861458 -4.568579,8.827698 -1.548308,3.11108 -3.002624,6.26806 -4.503934,9.40209 -0.155662,0.36431 3.279148,1.83192 3.434813,1.4676 v 0 c 1.684343,-2.85395 3.493495,-5.63782 5.053029,-8.56183 1.564796,-2.93389 2.853192,-6.00717 4.311245,-8.995544 1.366218,-2.800157 2.835158,-5.550257 4.161343,-8.369594 2.273165,-4.832524 4.182239,-9.831091 6.550453,-14.621102 3.816001,-8.04798 1.695056,-3.066317 4.434782,-10.616221 3.036729,-8.368363 0.13009,0.156445 2.153549,-6.315107 0.159229,-0.509257 0.393309,-0.994571 0.530969,-1.510075 0.06097,-0.228333 0.04061,-0.470921 0.06091,-0.706382 0.03613,-0.06839 -0.608687,-0.409046 -0.644819,-0.340653 z" />
    <path style="fill:#000080;stroke-width:0.264583" id="path947" d="m 109.43371,45.696502 c -0.20964,0.227782 -0.44221,0.436419 -0.62891,0.683352 -0.7579,1.002427 -1.61577,2.542919 -2.25748,3.529656 -0.63935,0.983104 -1.34455,1.922981 -1.96758,2.91651 -1.5859,2.528988 -4.04754,6.953226 -5.427222,9.387459 -1.287052,2.108925 -2.643052,4.177289 -3.86116,6.326772 -1.44718,2.553708 -2.731346,5.196617 -4.131182,7.776583 -16.469426,30.353896 7.642769,-14.270514 -10.28237,18.071708 -1.884595,3.400364 -3.60231,6.890728 -5.438553,10.317448 -1.911053,3.56633 -3.868724,7.10747 -5.803085,10.66121 -1.700284,3.83738 -3.40057,7.67476 -5.100854,11.51214 -0.172755,0.39063 3.510134,2.01938 3.682889,1.62875 v 0 c 2.168284,-3.36425 4.336568,-6.7285 6.504852,-10.09274 1.821344,-3.62628 3.620122,-7.26398 5.464027,-10.87884 1.767636,-3.46534 3.601913,-6.89641 5.370377,-10.361326 1.191372,-2.334231 8.016476,-15.962678 9.298498,-18.647317 1.269799,-2.659044 2.396324,-5.385306 3.681259,-8.037068 1.077744,-2.22417 2.269854,-4.391083 3.404784,-6.586625 7.48525,-16.084843 -1.56908,3.283223 4.66463,-9.818912 0.50566,-1.062802 0.95812,-2.150661 1.47528,-3.20792 0.37043,-0.757309 0.83462,-1.467474 1.18642,-2.233617 0.23333,-0.508141 0.37635,-1.053071 0.56453,-1.579605 0.12782,-0.26447 0.25565,-0.528939 0.38347,-0.793409 0.0609,-0.08301 -0.72172,-0.65722 -0.78262,-0.574209 z" />
  </g>
</svg>
